<?xml version="1.0" encoding="UTF-8"?>
<svg id="Capa_2" data-name="Capa 2" xmlns="http://www.w3.org/2000/svg" viewBox="0 0 93.47 44.45">
  <defs>
    <style>
      .cls-1 {
        fill: #f3f2f1;
      }

      .cls-2 {
        fill: #ec663b;
      }

      .cls-3 {
        fill: #0047ff;
      }
    </style>
  </defs>
  <g id="Capa_1-2" data-name="Capa 1">
    <path class="cls-3" d="m42.61,28.99s0,0,0,0l-8.53-.04c-2.39,4.3-6.98,7.21-12.24,7.21-7.73,0-14-6.27-14-14s6.27-14,14-14c5.27,0,9.86,2.91,12.24,7.21h8.53s0,0,0,.01c0,0,0,0,.01,0C39.8,6.46,31.56,0,21.83,0,9.77,0,0,9.92,0,22.17s9.77,22.17,21.83,22.17c9.71,0,17.94-6.44,20.78-15.34,0,0,0,0,0,0Z"/>
    <rect class="cls-3" x="37.97" y="19.12" width="8.84" height="6.48"/>
    <rect class="cls-2" x="46.83" y="19.12" width="8.84" height="6.48"/>
    <path class="cls-1" d="m50.86,29.11s0,0,0,0l8.53-.04c2.39,4.3,6.98,7.21,12.24,7.21,7.73,0,14-6.27,14-14s-6.27-14-14-14c-5.27,0-9.86,2.91-12.24,7.21h-8.53s0,0,0,.01c0,0,0,0-.01,0C53.67,6.57,61.91.11,71.63.11c12.06,0,21.83,9.92,21.83,22.17,0,12.24-9.77,22.17-21.83,22.17-9.71,0-17.94-6.44-20.78-15.34,0,0,0,0,0,0Z"/>
  </g>
</svg>