<svg width="200" height="200" viewBox="0 0 200 200" fill="none" xmlns="http://www.w3.org/2000/svg">
  <path
    d="M78 28C78 22.4772 82.4772 18 88 18H112C117.523 18 122 22.4772 122 28V38C122 42.4183 118.418 46 114 46H112V62L146.5 126.5C154.391 141.247 143.708 159 127 159H73C56.2919 159 45.6093 141.247 53.5 126.5L88 62V46H86C81.5817 46 78 42.4183 78 38V28Z"
    stroke="white"
    stroke-width="5"
    stroke-linecap="round"
    stroke-linejoin="round"
  />
  <path
    d="M88 28H112"
    stroke="white"
    stroke-width="4"
    stroke-linecap="round"
  />
  <rect
    x="92"
    y="78"
    width="16"
    height="8"
    rx="3"
    stroke="white"
    stroke-width="3"
  />
  <rect x="132" y="74" width="12" height="12" rx="2" fill="white"/>
  <rect x="72" y="102" width="10" height="10" rx="2" fill="white"/>
  <circle cx="118" cy="108" r="6" fill="white"/>
</svg>
